<?xml version="1.0" encoding="UTF-8" standalone="no"?>
<!DOCTYPE svg PUBLIC "-//W3C//DTD SVG 1.1//EN"
 "http://www.w3.org/Graphics/SVG/1.1/DTD/svg11.dtd">
<!-- Generated by graphviz version 2.40.1 (20161225.0304)
 -->
<!-- Title: dependencies Pages: 1 -->
<svg width="2497pt" height="284pt"
 viewBox="0.00 0.00 2497.00 284.00" xmlns="http://www.w3.org/2000/svg" xmlns:xlink="http://www.w3.org/1999/xlink">
<g id="graph0" class="graph" transform="scale(1 1) rotate(0) translate(4 280)">
<title>dependencies</title>
<polygon fill="#ffffff" stroke="transparent" points="-4,4 -4,-280 2493,-280 2493,4 -4,4"/>
<text text-anchor="start" x="1223.5091" y="-42.4" font-family="sans-serif" font-weight="bold" font-size="14.00" fill="#000000">Legend</text>
<polygon fill="#ffffb3" stroke="transparent" points="1010.5,-10 1010.5,-30 1030.5,-30 1030.5,-10 1010.5,-10"/>
<text text-anchor="start" x="1034.129" y="-15.4" font-family="sans-serif" font-size="14.00" fill="#000000"> &#160;Declarations</text>
<polygon fill="#8dd3c7" stroke="transparent" points="1123.5,-10 1123.5,-30 1143.5,-30 1143.5,-10 1123.5,-10"/>
<text text-anchor="start" x="1147.2251" y="-15.4" font-family="sans-serif" font-size="14.00" fill="#000000"> &#160;Module</text>
<polygon fill="#80b1d3" stroke="transparent" points="1209.5,-10 1209.5,-30 1229.5,-30 1229.5,-10 1209.5,-10"/>
<text text-anchor="start" x="1233.2812" y="-15.4" font-family="sans-serif" font-size="14.00" fill="#000000"> &#160;Bootstrap</text>
<polygon fill="#fdb462" stroke="transparent" points="1306.5,-10 1306.5,-30 1326.5,-30 1326.5,-10 1306.5,-10"/>
<text text-anchor="start" x="1330.1732" y="-15.4" font-family="sans-serif" font-size="14.00" fill="#000000"> &#160;Providers</text>
<polygon fill="#fb8072" stroke="transparent" points="1402.5,-10 1402.5,-30 1422.5,-30 1422.5,-10 1402.5,-10"/>
<text text-anchor="start" x="1426.2258" y="-15.4" font-family="sans-serif" font-size="14.00" fill="#000000"> &#160;Exports</text>
<g id="clust1" class="cluster">
<title>cluster_AppModule</title>
<polygon fill="none" stroke="#000000" stroke-dasharray="1,5" points="8,-70 8,-268 2481,-268 2481,-70 8,-70"/>
</g>
<g id="clust2" class="cluster">
<title>cluster_AppModule_declarations</title>
<polygon fill="none" stroke="#000000" points="612,-78 612,-130 2473,-130 2473,-78 612,-78"/>
</g>
<g id="clust15" class="cluster">
<title>cluster_AppModule_imports</title>
<polygon fill="none" stroke="#000000" points="460,-78 460,-130 604,-130 604,-78 460,-78"/>
</g>
<g id="clust17" class="cluster">
<title>cluster_AppModule_bootstrap</title>
<polygon fill="none" stroke="#000000" points="1197,-208 1197,-260 1321,-260 1321,-208 1197,-208"/>
</g>
<g id="clust18" class="cluster">
<title>cluster_AppModule_providers</title>
<polygon fill="none" stroke="#000000" points="16,-78 16,-130 452,-130 452,-78 16,-78"/>
</g>
<!-- AppComponent -->
<g id="node1" class="node">
<title>AppComponent</title>
<polygon fill="#ffffb3" stroke="#000000" points="2464.9399,-122 2359.0601,-122 2359.0601,-86 2464.9399,-86 2464.9399,-122"/>
<text text-anchor="middle" x="2412" y="-99.8" font-family="Times,serif" font-size="14.00" fill="#000000">AppComponent</text>
</g>
<!-- AppModule -->
<g id="node13" class="node">
<title>AppModule</title>
<polygon fill="#8dd3c7" stroke="#000000" points="1300.6571,-187 1297.6571,-191 1276.6571,-191 1273.6571,-187 1217.3429,-187 1217.3429,-151 1300.6571,-151 1300.6571,-187"/>
<text text-anchor="middle" x="1259" y="-164.8" font-family="Times,serif" font-size="14.00" fill="#000000">AppModule</text>
</g>
<!-- AppComponent&#45;&gt;AppModule -->
<g id="edge1" class="edge">
<title>AppComponent&#45;&gt;AppModule</title>
<path fill="none" stroke="#000000" d="M2412,-122.3228C2412,-145.6602 2412,-183 2412,-183 2412,-183 1310.717,-183 1310.717,-183"/>
<polygon fill="#000000" stroke="#000000" points="1310.7171,-179.5001 1300.717,-183 1310.717,-186.5001 1310.7171,-179.5001"/>
</g>
<!-- CrearProyectoComponent -->
<g id="node2" class="node">
<title>CrearProyectoComponent</title>
<polygon fill="#ffffb3" stroke="#000000" points="2341.1825,-122 2178.8175,-122 2178.8175,-86 2341.1825,-86 2341.1825,-122"/>
<text text-anchor="middle" x="2260" y="-99.8" font-family="Times,serif" font-size="14.00" fill="#000000">CrearProyectoComponent</text>
</g>
<!-- CrearProyectoComponent&#45;&gt;AppModule -->
<g id="edge2" class="edge">
<title>CrearProyectoComponent&#45;&gt;AppModule</title>
<path fill="none" stroke="#000000" d="M2260,-122.2921C2260,-144.2057 2260,-178 2260,-178 2260,-178 1310.7373,-178 1310.7373,-178"/>
<polygon fill="#000000" stroke="#000000" points="1310.7373,-174.5001 1300.7373,-178 1310.7373,-181.5001 1310.7373,-174.5001"/>
</g>
<!-- DashboardComponent -->
<g id="node3" class="node">
<title>DashboardComponent</title>
<polygon fill="#ffffb3" stroke="#000000" points="2160.9734,-122 2019.0266,-122 2019.0266,-86 2160.9734,-86 2160.9734,-122"/>
<text text-anchor="middle" x="2090" y="-99.8" font-family="Times,serif" font-size="14.00" fill="#000000">DashboardComponent</text>
</g>
<!-- DashboardComponent&#45;&gt;AppModule -->
<g id="edge3" class="edge">
<title>DashboardComponent&#45;&gt;AppModule</title>
<path fill="none" stroke="#000000" d="M2090,-122.0267C2090,-142.7672 2090,-174 2090,-174 2090,-174 1310.7789,-174 1310.7789,-174"/>
<polygon fill="#000000" stroke="#000000" points="1310.7789,-170.5001 1300.7789,-174 1310.7789,-177.5001 1310.7789,-170.5001"/>
</g>
<!-- HallFamaComponent -->
<g id="node4" class="node">
<title>HallFamaComponent</title>
<polygon fill="#ffffb3" stroke="#000000" points="2001.038,-122 1864.962,-122 1864.962,-86 2001.038,-86 2001.038,-122"/>
<text text-anchor="middle" x="1933" y="-99.8" font-family="Times,serif" font-size="14.00" fill="#000000">HallFamaComponent</text>
</g>
<!-- HallFamaComponent&#45;&gt;AppModule -->
<g id="edge4" class="edge">
<title>HallFamaComponent&#45;&gt;AppModule</title>
<path fill="none" stroke="#000000" d="M1933,-122.1061C1933,-141.3391 1933,-169 1933,-169 1933,-169 1310.9071,-169 1310.9071,-169"/>
<polygon fill="#000000" stroke="#000000" points="1310.9071,-165.5001 1300.9071,-169 1310.907,-172.5001 1310.9071,-165.5001"/>
</g>
<!-- HomeComponent -->
<g id="node5" class="node">
<title>HomeComponent</title>
<polygon fill="#ffffb3" stroke="#000000" points="1846.5451,-122 1731.4549,-122 1731.4549,-86 1846.5451,-86 1846.5451,-122"/>
<text text-anchor="middle" x="1789" y="-99.8" font-family="Times,serif" font-size="14.00" fill="#000000">HomeComponent</text>
</g>
<!-- HomeComponent&#45;&gt;AppModule -->
<g id="edge5" class="edge">
<title>HomeComponent&#45;&gt;AppModule</title>
<path fill="none" stroke="#000000" d="M1789,-122.302C1789,-140.2699 1789,-165 1789,-165 1789,-165 1311.0312,-165 1311.0312,-165"/>
<polygon fill="#000000" stroke="#000000" points="1311.0313,-161.5001 1301.0312,-165 1311.0312,-168.5001 1311.0313,-161.5001"/>
</g>
<!-- LoginComponent -->
<g id="node6" class="node">
<title>LoginComponent</title>
<polygon fill="#ffffb3" stroke="#000000" points="1713.2758,-122 1598.7242,-122 1598.7242,-86 1713.2758,-86 1713.2758,-122"/>
<text text-anchor="middle" x="1656" y="-99.8" font-family="Times,serif" font-size="14.00" fill="#000000">LoginComponent</text>
</g>
<!-- LoginComponent&#45;&gt;AppModule -->
<g id="edge6" class="edge">
<title>LoginComponent&#45;&gt;AppModule</title>
<path fill="none" stroke="#000000" d="M1656,-122.027C1656,-138.3976 1656,-160 1656,-160 1656,-160 1310.7356,-160 1310.7356,-160"/>
<polygon fill="#000000" stroke="#000000" points="1310.7356,-156.5001 1300.7356,-160 1310.7356,-163.5001 1310.7356,-156.5001"/>
</g>
<!-- NavbarComponent -->
<g id="node7" class="node">
<title>NavbarComponent</title>
<polygon fill="#ffffb3" stroke="#000000" points="1580.0297,-122 1457.9703,-122 1457.9703,-86 1580.0297,-86 1580.0297,-122"/>
<text text-anchor="middle" x="1519" y="-99.8" font-family="Times,serif" font-size="14.00" fill="#000000">NavbarComponent</text>
</g>
<!-- NavbarComponent&#45;&gt;AppModule -->
<g id="edge7" class="edge">
<title>NavbarComponent&#45;&gt;AppModule</title>
<path fill="none" stroke="#000000" d="M1519,-122.1871C1519,-137.1824 1519,-156 1519,-156 1519,-156 1310.7735,-156 1310.7735,-156"/>
<polygon fill="#000000" stroke="#000000" points="1310.7735,-152.5001 1300.7735,-156 1310.7735,-159.5001 1310.7735,-152.5001"/>
</g>
<!-- PostularProyectoComponent -->
<g id="node8" class="node">
<title>PostularProyectoComponent</title>
<polygon fill="#ffffb3" stroke="#000000" points="1439.479,-122 1262.521,-122 1262.521,-86 1439.479,-86 1439.479,-122"/>
<text text-anchor="middle" x="1351" y="-99.8" font-family="Times,serif" font-size="14.00" fill="#000000">PostularProyectoComponent</text>
</g>
<!-- PostularProyectoComponent&#45;&gt;AppModule -->
<g id="edge8" class="edge">
<title>PostularProyectoComponent&#45;&gt;AppModule</title>
<path fill="none" stroke="#000000" d="M1281.6694,-122.1061C1281.6694,-122.1061 1281.6694,-140.991 1281.6694,-140.991"/>
<polygon fill="#000000" stroke="#000000" points="1278.1694,-140.9909 1281.6694,-150.991 1285.1694,-140.991 1278.1694,-140.9909"/>
</g>
<!-- ProyectoListComponent -->
<g id="node9" class="node">
<title>ProyectoListComponent</title>
<polygon fill="#ffffb3" stroke="#000000" points="1244.3739,-122 1091.6261,-122 1091.6261,-86 1244.3739,-86 1244.3739,-122"/>
<text text-anchor="middle" x="1168" y="-99.8" font-family="Times,serif" font-size="14.00" fill="#000000">ProyectoListComponent</text>
</g>
<!-- ProyectoListComponent&#45;&gt;AppModule -->
<g id="edge9" class="edge">
<title>ProyectoListComponent&#45;&gt;AppModule</title>
<path fill="none" stroke="#000000" d="M1230.8043,-122.1061C1230.8043,-122.1061 1230.8043,-140.991 1230.8043,-140.991"/>
<polygon fill="#000000" stroke="#000000" points="1227.3044,-140.9909 1230.8043,-150.991 1234.3044,-140.991 1227.3044,-140.9909"/>
</g>
<!-- RegisterComponent -->
<g id="node10" class="node">
<title>RegisterComponent</title>
<polygon fill="#ffffb3" stroke="#000000" points="1073.9846,-122 946.0154,-122 946.0154,-86 1073.9846,-86 1073.9846,-122"/>
<text text-anchor="middle" x="1010" y="-99.8" font-family="Times,serif" font-size="14.00" fill="#000000">RegisterComponent</text>
</g>
<!-- RegisterComponent&#45;&gt;AppModule -->
<g id="edge10" class="edge">
<title>RegisterComponent&#45;&gt;AppModule</title>
<path fill="none" stroke="#000000" d="M1010,-122.1871C1010,-137.1824 1010,-156 1010,-156 1010,-156 1207.323,-156 1207.323,-156"/>
<polygon fill="#000000" stroke="#000000" points="1207.323,-159.5001 1217.323,-156 1207.323,-152.5001 1207.323,-159.5001"/>
</g>
<!-- TrabajosComponent -->
<g id="node11" class="node">
<title>TrabajosComponent</title>
<polygon fill="#ffffb3" stroke="#000000" points="928.3104,-122 797.6896,-122 797.6896,-86 928.3104,-86 928.3104,-122"/>
<text text-anchor="middle" x="863" y="-99.8" font-family="Times,serif" font-size="14.00" fill="#000000">TrabajosComponent</text>
</g>
<!-- TrabajosComponent&#45;&gt;AppModule -->
<g id="edge11" class="edge">
<title>TrabajosComponent&#45;&gt;AppModule</title>
<path fill="none" stroke="#000000" d="M863,-122.027C863,-138.3976 863,-160 863,-160 863,-160 1206.996,-160 1206.996,-160"/>
<polygon fill="#000000" stroke="#000000" points="1206.996,-163.5001 1216.996,-160 1206.9959,-156.5001 1206.996,-163.5001"/>
</g>
<!-- UsuarioDetailComponent -->
<g id="node12" class="node">
<title>UsuarioDetailComponent</title>
<polygon fill="#ffffb3" stroke="#000000" points="779.8571,-122 620.1429,-122 620.1429,-86 779.8571,-86 779.8571,-122"/>
<text text-anchor="middle" x="700" y="-99.8" font-family="Times,serif" font-size="14.00" fill="#000000">UsuarioDetailComponent</text>
</g>
<!-- UsuarioDetailComponent&#45;&gt;AppModule -->
<g id="edge12" class="edge">
<title>UsuarioDetailComponent&#45;&gt;AppModule</title>
<path fill="none" stroke="#000000" d="M700,-122.302C700,-140.2699 700,-165 700,-165 700,-165 1206.9841,-165 1206.9841,-165"/>
<polygon fill="#000000" stroke="#000000" points="1206.9842,-168.5001 1216.9841,-165 1206.9841,-161.5001 1206.9842,-168.5001"/>
</g>
<!-- AppComponent  -->
<g id="node15" class="node">
<title>AppComponent </title>
<polygon fill="#80b1d3" stroke="#000000" points="1313.439,-252 1204.561,-252 1204.561,-216 1313.439,-216 1313.439,-252"/>
<text text-anchor="middle" x="1259" y="-229.8" font-family="Times,serif" font-size="14.00" fill="#000000">AppComponent </text>
</g>
<!-- AppModule&#45;&gt;AppComponent  -->
<g id="edge14" class="edge">
<title>AppModule&#45;&gt;AppComponent </title>
<path fill="none" stroke="#000000" stroke-dasharray="1,5" d="M1259,-187.1061C1259,-187.1061 1259,-205.991 1259,-205.991"/>
<polygon fill="#000000" stroke="#000000" points="1255.5001,-205.9909 1259,-215.991 1262.5001,-205.991 1255.5001,-205.9909"/>
</g>
<!-- AppRoutingModule -->
<g id="node14" class="node">
<title>AppRoutingModule</title>
<polygon fill="#8dd3c7" stroke="#000000" points="596.2744,-122 593.2744,-126 572.2744,-126 569.2744,-122 467.7256,-122 467.7256,-86 596.2744,-86 596.2744,-122"/>
<text text-anchor="middle" x="532" y="-99.8" font-family="Times,serif" font-size="14.00" fill="#000000">AppRoutingModule</text>
</g>
<!-- AppRoutingModule&#45;&gt;AppModule -->
<g id="edge13" class="edge">
<title>AppRoutingModule&#45;&gt;AppModule</title>
<path fill="none" stroke="#000000" d="M532,-122.1061C532,-141.3391 532,-169 532,-169 532,-169 1207.3022,-169 1207.3022,-169"/>
<polygon fill="#000000" stroke="#000000" points="1207.3022,-172.5001 1217.3022,-169 1207.3021,-165.5001 1207.3022,-172.5001"/>
</g>
<!-- AuthService -->
<g id="node16" class="node">
<title>AuthService</title>
<ellipse fill="#fdb462" stroke="#000000" cx="385" cy="-104" rx="59.1083" ry="18"/>
<text text-anchor="middle" x="385" y="-99.8" font-family="Times,serif" font-size="14.00" fill="#000000">AuthService</text>
</g>
<!-- AuthService&#45;&gt;AppModule -->
<g id="edge15" class="edge">
<title>AuthService&#45;&gt;AppModule</title>
<path fill="none" stroke="#000000" d="M385,-122.0267C385,-142.7672 385,-174 385,-174 385,-174 1207.1396,-174 1207.1396,-174"/>
<polygon fill="#000000" stroke="#000000" points="1207.1396,-177.5001 1217.1396,-174 1207.1396,-170.5001 1207.1396,-177.5001"/>
</g>
<!-- ProyectoService -->
<g id="node17" class="node">
<title>ProyectoService</title>
<ellipse fill="#fdb462" stroke="#000000" cx="233" cy="-104" rx="74.1354" ry="18"/>
<text text-anchor="middle" x="233" y="-99.8" font-family="Times,serif" font-size="14.00" fill="#000000">ProyectoService</text>
</g>
<!-- ProyectoService&#45;&gt;AppModule -->
<g id="edge16" class="edge">
<title>ProyectoService&#45;&gt;AppModule</title>
<path fill="none" stroke="#000000" d="M233,-122.2921C233,-144.2057 233,-178 233,-178 233,-178 1207.1884,-178 1207.1884,-178"/>
<polygon fill="#000000" stroke="#000000" points="1207.1884,-181.5001 1217.1884,-178 1207.1883,-174.5001 1207.1884,-181.5001"/>
</g>
<!-- UserService -->
<g id="node18" class="node">
<title>UserService</title>
<ellipse fill="#fdb462" stroke="#000000" cx="82" cy="-104" rx="58.4415" ry="18"/>
<text text-anchor="middle" x="82" y="-99.8" font-family="Times,serif" font-size="14.00" fill="#000000">UserService</text>
</g>
<!-- UserService&#45;&gt;AppModule -->
<g id="edge17" class="edge">
<title>UserService&#45;&gt;AppModule</title>
<path fill="none" stroke="#000000" d="M82,-122.3228C82,-145.6602 82,-183 82,-183 82,-183 1207.1099,-183 1207.1099,-183"/>
<polygon fill="#000000" stroke="#000000" points="1207.11,-186.5001 1217.1099,-183 1207.1099,-179.5001 1207.11,-186.5001"/>
</g>
</g>
</svg>
