<?xml version="1.0" encoding="UTF-8" standalone="no"?>
<!DOCTYPE svg PUBLIC "-//W3C//DTD SVG 1.1//EN"
 "http://www.w3.org/Graphics/SVG/1.1/DTD/svg11.dtd">
<!-- Generated by graphviz version 2.40.1 (20161225.0304)
 -->
<!-- Title: dependencies Pages: 1 -->
<svg width="792pt" height="284pt"
 viewBox="0.00 0.00 792.00 284.00" xmlns="http://www.w3.org/2000/svg" xmlns:xlink="http://www.w3.org/1999/xlink">
<g id="graph0" class="graph" transform="scale(1 1) rotate(0) translate(4 280)">
<title>dependencies</title>
<polygon fill="#ffffff" stroke="transparent" points="-4,4 -4,-280 788,-280 788,4 -4,4"/>
<text text-anchor="start" x="371.0091" y="-42.4" font-family="sans-serif" font-weight="bold" font-size="14.00" fill="#000000">Legend</text>
<polygon fill="#ffffb3" stroke="transparent" points="158,-10 158,-30 178,-30 178,-10 158,-10"/>
<text text-anchor="start" x="181.629" y="-15.4" font-family="sans-serif" font-size="14.00" fill="#000000"> &#160;Declarations</text>
<polygon fill="#8dd3c7" stroke="transparent" points="271,-10 271,-30 291,-30 291,-10 271,-10"/>
<text text-anchor="start" x="294.7251" y="-15.4" font-family="sans-serif" font-size="14.00" fill="#000000"> &#160;Module</text>
<polygon fill="#80b1d3" stroke="transparent" points="357,-10 357,-30 377,-30 377,-10 357,-10"/>
<text text-anchor="start" x="380.7812" y="-15.4" font-family="sans-serif" font-size="14.00" fill="#000000"> &#160;Bootstrap</text>
<polygon fill="#fdb462" stroke="transparent" points="454,-10 454,-30 474,-30 474,-10 454,-10"/>
<text text-anchor="start" x="477.6732" y="-15.4" font-family="sans-serif" font-size="14.00" fill="#000000"> &#160;Providers</text>
<polygon fill="#fb8072" stroke="transparent" points="550,-10 550,-30 570,-30 570,-10 550,-10"/>
<text text-anchor="start" x="573.7258" y="-15.4" font-family="sans-serif" font-size="14.00" fill="#000000"> &#160;Exports</text>
<g id="clust1" class="cluster">
<title>cluster_AppModule</title>
<polygon fill="none" stroke="#000000" stroke-dasharray="1,5" points="8,-70 8,-268 776,-268 776,-70 8,-70"/>
</g>
<g id="clust2" class="cluster">
<title>cluster_AppModule_declarations</title>
<polygon fill="none" stroke="#000000" points="168,-78 168,-130 768,-130 768,-78 168,-78"/>
</g>
<g id="clust7" class="cluster">
<title>cluster_AppModule_imports</title>
<polygon fill="none" stroke="#000000" points="16,-78 16,-130 160,-130 160,-78 16,-78"/>
</g>
<g id="clust9" class="cluster">
<title>cluster_AppModule_bootstrap</title>
<polygon fill="none" stroke="#000000" points="353,-208 353,-260 477,-260 477,-208 353,-208"/>
</g>
<!-- AppComponent -->
<g id="node1" class="node">
<title>AppComponent</title>
<polygon fill="#ffffb3" stroke="#000000" points="759.9399,-122 654.0601,-122 654.0601,-86 759.9399,-86 759.9399,-122"/>
<text text-anchor="middle" x="707" y="-99.8" font-family="Times,serif" font-size="14.00" fill="#000000">AppComponent</text>
</g>
<!-- AppModule -->
<g id="node5" class="node">
<title>AppModule</title>
<polygon fill="#8dd3c7" stroke="#000000" points="456.6571,-187 453.6571,-191 432.6571,-191 429.6571,-187 373.3429,-187 373.3429,-151 456.6571,-151 456.6571,-187"/>
<text text-anchor="middle" x="415" y="-164.8" font-family="Times,serif" font-size="14.00" fill="#000000">AppModule</text>
</g>
<!-- AppComponent&#45;&gt;AppModule -->
<g id="edge1" class="edge">
<title>AppComponent&#45;&gt;AppModule</title>
<path fill="none" stroke="#000000" d="M707,-122.2843C707,-143.3211 707,-175 707,-175 707,-175 466.8365,-175 466.8365,-175"/>
<polygon fill="#000000" stroke="#000000" points="466.8365,-171.5001 456.8365,-175 466.8364,-178.5001 466.8365,-171.5001"/>
</g>
<!-- DashboardComponent -->
<g id="node2" class="node">
<title>DashboardComponent</title>
<polygon fill="#ffffb3" stroke="#000000" points="635.9734,-122 494.0266,-122 494.0266,-86 635.9734,-86 635.9734,-122"/>
<text text-anchor="middle" x="565" y="-99.8" font-family="Times,serif" font-size="14.00" fill="#000000">DashboardComponent</text>
</g>
<!-- DashboardComponent&#45;&gt;AppModule -->
<g id="edge2" class="edge">
<title>DashboardComponent&#45;&gt;AppModule</title>
<path fill="none" stroke="#000000" d="M565,-122.0225C565,-139.3734 565,-163 565,-163 565,-163 466.7834,-163 466.7834,-163"/>
<polygon fill="#000000" stroke="#000000" points="466.7834,-159.5001 456.7834,-163 466.7833,-166.5001 466.7834,-159.5001"/>
</g>
<!-- NavbarComponent -->
<g id="node3" class="node">
<title>NavbarComponent</title>
<polygon fill="#ffffb3" stroke="#000000" points="476.0297,-122 353.9703,-122 353.9703,-86 476.0297,-86 476.0297,-122"/>
<text text-anchor="middle" x="415" y="-99.8" font-family="Times,serif" font-size="14.00" fill="#000000">NavbarComponent</text>
</g>
<!-- NavbarComponent&#45;&gt;AppModule -->
<g id="edge3" class="edge">
<title>NavbarComponent&#45;&gt;AppModule</title>
<path fill="none" stroke="#000000" d="M415,-122.1061C415,-122.1061 415,-140.991 415,-140.991"/>
<polygon fill="#000000" stroke="#000000" points="411.5001,-140.9909 415,-150.991 418.5001,-140.991 411.5001,-140.9909"/>
</g>
<!-- UsuarioDetailComponent -->
<g id="node4" class="node">
<title>UsuarioDetailComponent</title>
<polygon fill="#ffffb3" stroke="#000000" points="335.8571,-122 176.1429,-122 176.1429,-86 335.8571,-86 335.8571,-122"/>
<text text-anchor="middle" x="256" y="-99.8" font-family="Times,serif" font-size="14.00" fill="#000000">UsuarioDetailComponent</text>
</g>
<!-- UsuarioDetailComponent&#45;&gt;AppModule -->
<g id="edge4" class="edge">
<title>UsuarioDetailComponent&#45;&gt;AppModule</title>
<path fill="none" stroke="#000000" d="M256,-122.0225C256,-139.3734 256,-163 256,-163 256,-163 363.2246,-163 363.2246,-163"/>
<polygon fill="#000000" stroke="#000000" points="363.2247,-166.5001 373.2246,-163 363.2246,-159.5001 363.2247,-166.5001"/>
</g>
<!-- AppComponent  -->
<g id="node7" class="node">
<title>AppComponent </title>
<polygon fill="#80b1d3" stroke="#000000" points="469.439,-252 360.561,-252 360.561,-216 469.439,-216 469.439,-252"/>
<text text-anchor="middle" x="415" y="-229.8" font-family="Times,serif" font-size="14.00" fill="#000000">AppComponent </text>
</g>
<!-- AppModule&#45;&gt;AppComponent  -->
<g id="edge6" class="edge">
<title>AppModule&#45;&gt;AppComponent </title>
<path fill="none" stroke="#000000" stroke-dasharray="1,5" d="M415,-187.1061C415,-187.1061 415,-205.991 415,-205.991"/>
<polygon fill="#000000" stroke="#000000" points="411.5001,-205.9909 415,-215.991 418.5001,-205.991 411.5001,-205.9909"/>
</g>
<!-- AppRoutingModule -->
<g id="node6" class="node">
<title>AppRoutingModule</title>
<polygon fill="#8dd3c7" stroke="#000000" points="152.2744,-122 149.2744,-126 128.2744,-126 125.2744,-122 23.7256,-122 23.7256,-86 152.2744,-86 152.2744,-122"/>
<text text-anchor="middle" x="88" y="-99.8" font-family="Times,serif" font-size="14.00" fill="#000000">AppRoutingModule</text>
</g>
<!-- AppRoutingModule&#45;&gt;AppModule -->
<g id="edge5" class="edge">
<title>AppRoutingModule&#45;&gt;AppModule</title>
<path fill="none" stroke="#000000" d="M88,-122.2843C88,-143.3211 88,-175 88,-175 88,-175 363.2531,-175 363.2531,-175"/>
<polygon fill="#000000" stroke="#000000" points="363.2531,-178.5001 373.2531,-175 363.253,-171.5001 363.2531,-178.5001"/>
</g>
</g>
</svg>
